<svg xmlns="http://www.w3.org/2000/svg" fill="none" viewBox="0 0 44 28">
  <path fill="#80C1FF" d="m24 17-2-1-2 2v3a2 2 0 0 0 2 2h1l1-2v-1a2 2 0 0 0 0-3Zm-1 2v2l-1 1v-2l-1-1v-1l1-1h1v2ZM28 26H14l-1-1v-2h-1v2l2 2h14v-1Z"/>
  <path fill="#80C1FF" d="M39 7h-5l-2 2h-3V8h2l1-1V4l1-2-2-2-2 2 1 2v2h-1c-1-3-4-5-7-5-4 0-7 2-8 5h-1V4l1-2-2-2-2 2 2 2v4h2v1h-2l-2-2H4L2 6 0 8l2 2 2-2h5l2 2h3v2l-2 2v1H8v2H6l-2-2-2 2 2 2 2-1h3v-2h3v3H9v2l-2 2 2 2 2-2-1-2v-1h2v3h1v-9l1-1h15l1 1v11l-1 1h-1v1h1l2-2v-5h2v1l-1 2 2 2 2-2-1-2v-2h-4v-3h3v1l1 1h3l1 1c2 0 3-1 3-2s-1-2-3-2l-1 2h-3v-2h-4v-1l-2-2v-2h3l2-2h5l2 2 2-2-2-2-2 1Zm-9-5 1-1 1 1-1 1-1-1ZM12 3V1l1 1-1 1ZM2 9 1 8l1-1 1 1-1 1Zm2 9-1-1 1-1v2Zm6 5-1 1-1-1 1-1 1 1Zm16-11V8c0-3-2-5-4-5-3 0-5 2-5 4v3h1s0 3 0 0V8c0-2 2-3 4-3 1 0 3 1 3 3v4h-7v-2h-1v2h-2V8c0-3 3-6 7-6 3 0 6 3 6 6v4h-2Zm8 10 1 1-1 1-1-1 1-1Zm5-6 1 1-1 1v-2Zm2-7-1-1 1-1 1 1-1 1Z"/>
</svg>
